# xmcd
#
# Track frame offsets: 
#        150
#        20300
#        37207
#        52980
#        70200
#        89307
#        110115
#        124260
#        140690
#        154112
#
# Disc length: 2335 seconds
#
# Revision: 1
# Processed by: cddbd v1.5.2PL0 Copyright (c) Steve Scherf et al.
# Submitted via: ExactAudioCopyFreeDBPlugin 1.0
#
DISCID=8d091d0a
DTITLE=The President - By Appointment Of The President
DYEAR=1983
DGENRE=Broken English
TTITLE0=Hot-Blooded Lady
TTITLE1=Workin' Girl
TTITLE2=Makin' Millionaires
TTITLE3=Don't Put Me On Hold
TTITLE4=Turn Me On
TTITLE5=That's The Way That It Is
TTITLE6=Only Once Is Enough
TTITLE7=You're Gonna Like It
TTITLE8=Outland
TTITLE9=Goin' Places
EXTD=YEAR: 1983
EXTT0=
EXTT1=
EXTT2=
EXTT3=
EXTT4=
EXTT5=
EXTT6=
EXTT7=
EXTT8=
EXTT9=
PLAYORDER=
